<svg width="239" height="56" viewBox="0 0 239 56" fill="none" xmlns="http://www.w3.org/2000/svg">
<path d="M220.696 28.0716C222.79 25.9499 225.173 24.889 227.844 24.889C230.047 24.889 231.743 25.2548 232.899 25.9865C234.054 26.7181 234.451 27.34 234.451 28.6569V42.558H239V28.4009C239 26.3523 238.35 24.8159 237.05 23.6818C235.029 21.9625 232.285 21.0845 228.855 21.0845C225.75 21.0845 223.007 22.2917 220.66 24.7061V21.5601H216.147V42.5945H220.696V28.0716ZM210.082 42.558V21.5235H205.533V24.5232C203.006 22.3283 199.829 21.0845 196.507 21.048C193.258 21.048 190.478 21.9991 188.204 23.9379C186.94 25.0719 186.254 26.6084 186.254 28.6569V35.4245C186.254 37.4731 186.904 39.0095 188.204 40.1436C190.406 42.0458 193.186 42.9969 196.507 42.9969C199.829 43.0701 203.078 41.8263 205.533 39.5583V42.5214L210.082 42.558ZM205.533 35.644C204.558 36.8146 203.295 37.6926 201.887 38.2048C200.515 38.8632 198.998 39.229 197.482 39.2656C195.749 39.2656 194.016 38.7901 192.5 37.9121C191.236 37.1805 190.803 36.522 190.803 35.2051V28.9496C190.803 27.5595 191.2 26.9376 192.5 26.2426C194.016 25.3646 195.713 24.9256 197.482 24.9256C198.998 24.9622 200.515 25.2914 201.887 25.9133C203.511 26.5718 204.703 27.4132 205.533 28.474V35.644ZM177.048 42.558L183.583 21.5235H178.853L173.727 38.8266H172.643L167.228 21.5235H162.39L156.506 38.8266H155.495L150.477 21.5235H145.567L152.137 42.558H159.466L164.701 26.8644L169.755 42.558H177.048ZM129.681 42.9604C134.086 42.9604 137.299 42.5214 139.249 41.6434C141.559 40.546 142.714 38.8632 142.714 36.6683V34.4368C142.787 33.0467 142.209 31.6932 141.198 30.7787C140.259 29.9007 138.599 29.0959 136.144 28.474L128.887 26.4986C126.865 25.9865 125.566 25.4743 125.06 25.0354C124.555 24.5964 124.194 23.8282 124.194 22.8405C124.194 21.7796 124.555 21.048 125.277 20.5724C126.216 19.9505 128.31 19.6213 131.45 19.6213C134.736 19.5847 137.985 19.9139 141.198 20.609V16.7679C138.129 16.1826 135.061 15.8899 131.956 15.9265C127.371 15.9265 124.086 16.5484 122.172 17.8654C120.475 18.9994 119.645 20.4627 119.645 22.2552V24.194C119.609 25.5109 120.114 26.7547 121.053 27.6692C122.172 28.7301 124.086 29.6446 126.829 30.3397L133.761 32.2419C137.119 33.0833 138.129 33.8881 138.129 35.7172C138.129 37.0341 137.732 37.9121 136.938 38.3511C135.747 38.973 133.4 39.3022 129.934 39.3022C126.504 39.3388 123.111 38.973 119.753 38.3145V42.2287C122.966 42.7409 126.288 42.9969 129.681 42.9604ZM116.251 38.6803C114.591 39.1559 112.894 39.3754 111.161 39.3388C109.464 39.3388 108.128 39.0095 107.19 38.2779C106.323 37.6194 106.07 36.8146 106.07 35.1319V25.1085H116.251V21.4869H106.106V16.146H101.558V35.4611C101.558 38.3145 102.063 39.8509 103.651 41.2044C105.168 42.4116 107.478 42.9969 110.655 42.9969C113.11 42.9969 114.952 42.7409 116.287 42.1922L116.251 38.6803ZM95.5645 21.4869H91.0156V42.5214H95.5645V21.4869ZM95.5645 13H91.0156V17.7922H95.5645V13ZM76.4302 42.558C80.6903 42.558 82.9286 42.0824 84.6254 40.6191C86.25 39.229 86.8277 38.2413 86.8277 36.083V34.2539C86.8277 32.059 85.7807 30.486 83.6868 29.5349C83.3618 29.352 83.1091 29.2422 83.0008 29.2057L83.1452 29.1325C85.0948 28.3277 86.0334 26.8279 86.0334 24.5964V22.6941C86.0334 20.6821 85.528 19.5847 84.1922 18.3775C82.6037 17.024 79.9321 16.3655 76.1052 16.3655H63V42.558H76.4302ZM77.2244 31.0713C79.0295 31.0713 80.3292 31.364 81.1235 31.9859C81.9177 32.6078 82.3149 33.632 82.3149 35.0587C82.3149 36.4854 81.8455 37.4365 80.9791 38.0584C80.1848 38.6437 78.7046 38.9364 76.5385 38.9364H67.4767V31.0713H77.2244ZM75.7803 20.0237C78.2353 20.0237 79.7877 20.3529 80.5819 21.0845C81.1957 21.7064 81.5206 22.621 81.5206 23.9013C81.5206 25.2549 81.1957 26.1694 80.5097 26.7181C79.7516 27.2668 78.7046 27.5595 77.2966 27.5595H67.4767V20.0237H75.7803Z" fill="white"/>
<path d="M0 37.7792V1.80762L21.4276 19.8838L3.68455 33.5494C2.14634 34.7063 0.894309 36.1524 0 37.7792ZM32.4455 29.1388L24.826 35.6462C22.2862 37.8877 20.9268 40.8883 20.9268 44.3228C20.9268 47.4319 22.1431 50.3602 24.2894 52.5655C26.4715 54.7708 29.3691 56 32.4455 56C35.5219 56 38.4195 54.7708 40.6016 52.5655C42.7837 50.3602 43.9642 47.4319 43.9642 44.3228C43.9642 41.2137 42.7837 38.2853 40.6016 36.1162L32.4455 29.1388ZM42.3902 5.71207L33.4472 12.7618L4.68618 34.9232C1.75285 37.0923 0 40.5991 0 44.2866C0 47.3957 1.21626 50.3241 3.3626 52.5294C5.54471 54.7347 8.44228 55.9638 11.5187 55.9638H25.9707C24.9333 55.3854 23.9675 54.6262 23.0732 53.7586C20.5691 51.2279 19.2098 47.8657 19.2098 44.3228C19.2098 40.4545 20.7837 36.9116 23.6813 34.3447L40.1366 20.3538C42.5691 18.2569 44 14.9671 44 11.6772C44 9.54422 43.4634 7.51969 42.3902 5.71207ZM20.5691 0L33.4829 10.5926L41.3886 4.33828C41.2098 4.12137 40.9236 3.796 40.5659 3.36217C38.2764 0.578438 34.878 0 32.4813 0H20.5691Z" fill="white"/>
</svg>
