<svg width="664" height="155" viewBox="0 0 664 155" fill="none" xmlns="http://www.w3.org/2000/svg">
<g clip-path="url(#clip0_46_23)">
<path d="M612.6 77.7C618.4 71.9 625 69 632.4 69C638.5 69 643.2 70 646.4 72C649.6 74 650.7 75.7 650.7 79.3V117.3H663.3V78.6C663.3 73 661.5 68.8 657.9 65.7C652.3 61 644.7 58.6 635.2 58.6C626.6 58.6 619 61.9 612.5 68.5V59.9H600V117.4H612.6V77.7ZM583.2 117.3V59.8H570.6V68C563.6 62 554.8 58.6 545.6 58.5C536.6 58.5 528.9 61.1 522.6 66.4C519.1 69.5 517.2 73.7 517.2 79.3V97.8C517.2 103.4 519 107.6 522.6 110.7C528.7 115.9 536.4 118.5 545.6 118.5C554.8 118.7 563.8 115.3 570.6 109.1V117.2L583.2 117.3ZM570.6 98.4C567.9 101.6 564.4 104 560.5 105.4C556.7 107.2 552.5 108.2 548.3 108.3C543.5 108.3 538.7 107 534.5 104.6C531 102.6 529.8 100.8 529.8 97.2V80.1C529.8 76.3 530.9 74.6 534.5 72.7C538.7 70.3 543.4 69.1 548.3 69.1C552.5 69.2 556.7 70.1 560.5 71.8C565 73.6 568.3 75.9 570.6 78.8V98.4ZM491.7 117.3L509.8 59.8H496.7L482.5 107.1H479.5L464.5 59.8H451.1L434.8 107.1H432L418.1 59.8H404.5L422.7 117.3H443L457.5 74.4L471.5 117.3H491.7ZM360.5 118.4C372.7 118.4 381.6 117.2 387 114.8C393.4 111.8 396.6 107.2 396.6 101.2V95.1C396.8 91.3 395.2 87.6 392.4 85.1C389.8 82.7 385.2 80.5 378.4 78.8L358.3 73.4C352.7 72 349.1 70.6 347.7 69.4C346.3 68.2 345.3 66.1 345.3 63.4C345.3 60.5 346.3 58.5 348.3 57.2C350.9 55.5 356.7 54.6 365.4 54.6C374.5 54.5 383.5 55.4 392.4 57.3V46.8C383.9 45.2 375.4 44.4 366.8 44.5C354.1 44.5 345 46.2 339.7 49.8C335 52.9 332.7 56.9 332.7 61.8V67.1C332.6 70.7 334 74.1 336.6 76.6C339.7 79.5 345 82 352.6 83.9L371.8 89.1C381.1 91.4 383.9 93.6 383.9 98.6C383.9 102.2 382.8 104.6 380.6 105.8C377.3 107.5 370.8 108.4 361.2 108.4C351.7 108.5 342.3 107.5 333 105.7V116.4C341.9 117.8 351.1 118.5 360.5 118.4ZM323.3 106.7C318.7 108 314 108.6 309.2 108.5C304.5 108.5 300.8 107.6 298.2 105.6C295.8 103.8 295.1 101.6 295.1 97V69.6H323.3V59.7H295.2V45.1H282.6V97.9C282.6 105.7 284 109.9 288.4 113.6C292.6 116.9 299 118.5 307.8 118.5C314.6 118.5 319.7 117.8 323.4 116.3L323.3 106.7ZM266 59.7H253.4V117.2H266V59.7ZM266 36.5H253.4V49.6H266V36.5ZM213 117.3C224.8 117.3 231 116 235.7 112C240.2 108.2 241.8 105.5 241.8 99.6V94.6C241.8 88.6 238.9 84.3 233.1 81.7C232.2 81.2 231.5 80.9 231.2 80.8L231.6 80.6C237 78.4 239.6 74.3 239.6 68.2V63C239.6 57.5 238.2 54.5 234.5 51.2C230.1 47.5 222.7 45.7 212.1 45.7H175.8V117.3H213ZM215.2 85.9C220.2 85.9 223.8 86.7 226 88.4C228.2 90.1 229.3 92.9 229.3 96.8C229.3 100.7 228 103.3 225.6 105C223.4 106.6 219.3 107.4 213.3 107.4H188.2V85.9H215.2ZM211.2 55.7C218 55.7 222.3 56.6 224.5 58.6C226.2 60.3 227.1 62.8 227.1 66.3C227.1 70 226.2 72.5 224.3 74C222.2 75.5 219.3 76.3 215.4 76.3H188.2V55.7H211.2Z" fill="black"/>
<path d="M0 104.5V5L59.9 55L10.3 92.8C6 96 2.5 100 0 104.5ZM90.7 80.6L69.4 98.6C62.3 104.8 58.5 113.1 58.5 122.6C58.5 131.2 61.9 139.3 67.9 145.4C74 151.5 82.1 154.9 90.7 154.9C99.3 154.9 107.4 151.5 113.5 145.4C119.6 139.3 122.9 131.2 122.9 122.6C122.9 114 119.6 105.9 113.5 99.9L90.7 80.6ZM118.5 15.8L93.5 35.3L13.1 96.6C4.9 102.6 0 112.3 0 122.5C0 131.1 3.4 139.2 9.4 145.3C15.5 151.4 23.6 154.8 32.2 154.8H72.6C69.7 153.2 67 151.1 64.5 148.7C57.5 141.7 53.7 132.4 53.7 122.6C53.7 111.9 58.1 102.1 66.2 95L112.2 56.3C119 50.5 123 41.4 123 32.3C123 26.4 121.5 20.8 118.5 15.8ZM57.5 0L93.6 29.3L115.7 12C115.2 11.4 114.4 10.5 113.4 9.3C107 1.6 97.5 0 90.8 0H57.5Z" fill="black"/>
</g>
<defs>
<clipPath id="clip0_46_23">
<rect width="663.4" height="154.8" fill="white"/>
</clipPath>
</defs>
</svg>
