<svg width="17" height="17" viewBox="0 0 17 17" fill="none" xmlns="http://www.w3.org/2000/svg">
<path d="M11.6452 10.6918H10.9383L10.6878 10.4294C11.5647 9.32133 12.0926 7.88279 12.0926 6.3179C12.0926 2.82847 9.48879 0 6.27653 0C3.06426 0 0.460449 2.82847 0.460449 6.3179C0.460449 9.80732 3.06426 12.6358 6.27653 12.6358C7.71712 12.6358 9.0414 12.0623 10.0614 11.1098L10.303 11.3819V12.1498L14.7769 17L16.1102 15.5517L11.6452 10.6918ZM6.27653 10.6918C4.04852 10.6918 2.25001 8.73814 2.25001 6.3179C2.25001 3.89766 4.04852 1.94397 6.27653 1.94397C8.50453 1.94397 10.303 3.89766 10.303 6.3179C10.303 8.73814 8.50453 10.6918 6.27653 10.6918Z" fill="#1C1917"/>
</svg>
